<svg width="316" height="112" viewBox="0 0 316 112" fill="none" xmlns="http://www.w3.org/2000/svg">
<path d="M65.8702 8.07416C65.8702 3.61492 62.2556 0 57.7968 0C53.338 0 49.7234 3.61492 49.7234 8.07416V29.6885C49.7234 34.1477 53.338 37.7627 57.7968 37.7627C62.2556 37.7627 65.8702 34.1477 65.8702 29.6885V8.07416Z" fill="white"/>
<path d="M17.1268 11.0759C13.9736 7.9227 8.8616 7.92246 5.70875 11.0753C2.55589 14.2282 2.55614 19.3402 5.70929 22.4933L20.9929 37.777C24.1461 40.9302 29.2581 40.9304 32.411 37.7775C35.5638 34.6247 35.5636 29.5127 32.4104 26.3595L17.1268 11.0759Z" fill="white"/>
<path d="M5.74262 78.7074C2.58946 81.8606 2.58922 86.9726 5.74207 90.1255C8.89493 93.2783 14.007 93.2781 17.1601 90.1249L32.4438 74.8413C35.5969 71.6881 35.5972 66.5761 32.4443 63.4232C29.2915 60.2704 24.1794 60.2706 21.0263 63.4238L5.74262 78.7074Z" fill="white"/>
<path d="M65.8702 71.5615C65.8702 67.1022 62.2556 63.4873 57.7968 63.4873C53.338 63.4873 49.7234 67.1022 49.7234 71.5615V93.1758C49.7234 97.635 53.338 101.25 57.7968 101.25C62.2556 101.25 65.8702 97.635 65.8702 93.1758V71.5615Z" fill="white"/>
<path d="M45.1403 60.2761C50.4264 60.2761 54.7117 55.9908 54.7117 50.7047C54.7117 45.4186 50.4264 41.1333 45.1403 41.1333C39.8542 41.1333 35.5689 45.4186 35.5689 50.7047C35.5689 55.9908 39.8542 60.2761 45.1403 60.2761Z" fill="white"/>
<path d="M112.106 89.7316C94.8603 90.5074 80.4807 76.6988 80.4807 59.4768V48.4067V18.9276C80.4813 18.041 80.6566 17.1633 80.9965 16.3445C81.3365 15.5256 81.8344 14.7818 82.4619 14.1555C83.0894 13.5292 83.8341 13.0326 84.6535 12.6942C85.473 12.3558 86.351 12.1821 87.2376 12.1831C89.0264 12.1839 90.7417 12.8947 92.0069 14.1592C93.272 15.4238 93.9836 17.1388 93.9852 18.9276V42.7932C97.937 36.6709 104.38 33.2482 112.703 33.2482C128.397 33.2482 139.009 44.6597 139.009 61.6753C139.009 78.3791 128.685 88.7107 112.911 89.6882C112.638 89.7037 112.368 89.7192 112.106 89.7316ZM125.294 61.2595C125.294 51.5082 118.847 44.5558 109.696 44.5558C100.441 44.5558 93.9945 51.5082 93.9945 61.2595C93.9945 71.2203 100.441 78.0672 109.696 78.0672C118.838 78.0672 125.284 71.1164 125.284 61.2595H125.294Z" fill="white"/>
<path d="M284.377 33.6181C301.62 32.833 316 46.682 316 63.9443V75.0362V104.577C316 106.37 315.288 108.089 314.02 109.356C312.753 110.624 311.034 111.336 309.242 111.336C307.45 111.334 305.732 110.62 304.467 109.352C303.201 108.085 302.49 106.366 302.491 104.574V80.6621C298.541 86.7968 292.096 90.2272 283.775 90.2272C268.073 90.2272 257.467 78.7894 257.467 61.7365C257.467 44.9955 267.792 34.6406 283.567 33.6616C283.838 33.6445 284.108 33.6305 284.377 33.6181ZM271.189 62.1523C271.189 71.9269 277.635 78.8933 286.786 78.8933C296.04 78.8933 302.486 71.9269 302.486 62.1523C302.486 52.1698 296.04 45.3073 286.786 45.3073C277.64 45.3058 271.193 52.2753 271.193 62.1523H271.189Z" fill="white"/>
<path d="M160.298 18.9425V82.9291C160.302 84.7263 159.593 86.4516 158.325 87.7257C157.058 88.9998 155.336 89.7184 153.539 89.7233C151.742 89.7184 150.021 88.9998 148.753 87.7257C147.486 86.4516 146.776 84.7263 146.781 82.9291V18.9425C146.776 17.1466 147.485 15.4223 148.75 14.1482C150.016 12.874 151.736 12.1542 153.532 12.1469C154.422 12.1483 155.304 12.3252 156.126 12.6676C156.948 13.01 157.695 13.5111 158.323 14.1422C158.952 14.7734 159.45 15.5222 159.788 16.3459C160.127 17.1695 160.3 18.0519 160.298 18.9425Z" fill="white"/>
<path d="M224.826 33.097C231.859 33.519 238.738 36.2295 243.59 41.1882C249.715 47.4517 249.886 55.394 249.886 63.6854V82.4977C249.886 83.3851 249.712 84.2639 249.372 85.0839C249.033 85.9039 248.535 86.6489 247.907 87.2765C247.28 87.9041 246.535 88.402 245.715 88.7417C244.895 89.0813 244.017 89.2561 243.129 89.2561H243.024C241.231 89.2561 239.512 88.5441 238.245 87.2766C236.977 86.0092 236.265 84.2901 236.265 82.4977V58.4784C236.265 50.6789 231.586 45.8955 223.892 45.8955C214.738 45.9995 209.334 52.7595 209.334 61.9089V82.4977C209.334 84.2901 208.622 86.0092 207.354 87.2766C206.087 88.5441 204.368 89.2561 202.575 89.2561C200.783 89.2561 199.064 88.5441 197.796 87.2766C196.529 86.0092 195.817 84.2901 195.817 82.4977V67.7706C195.817 60.196 195.002 53.2032 198.765 46.2043C203.813 36.8005 214.486 32.4748 224.826 33.097Z" fill="white"/>
<path d="M184.818 40.8478V82.961C184.818 84.7534 184.106 86.4725 182.838 87.7399C181.571 89.0074 179.852 89.7194 178.059 89.7194C176.267 89.7194 174.548 89.0074 173.28 87.7399C172.013 86.4725 171.301 84.7534 171.301 82.961V40.8478C171.301 39.0554 172.013 37.3363 173.28 36.0689C174.548 34.8014 176.267 34.0894 178.059 34.0894C179.852 34.0894 181.571 34.8014 182.838 36.0689C184.106 37.3363 184.818 39.0554 184.818 40.8478Z" fill="white"/>
<path d="M178.022 27.2393C182.158 27.2393 185.51 23.8869 185.51 19.7516C185.51 15.6163 182.158 12.2639 178.022 12.2639C173.887 12.2639 170.535 15.6163 170.535 19.7516C170.535 23.8869 173.887 27.2393 178.022 27.2393Z" fill="white"/>
</svg>
