<svg xmlns="http://www.w3.org/2000/svg" xmlns:xlink="http://www.w3.org/1999/xlink" id="Layer_1" x="0" y="0" viewBox="0 0 1500.1 1505.7" xml:space="preserve" style="enable-background:new 0 0 1500.1 1505.7"><style type="text/css">.st0{display:none}.st1{display:inline;fill:url(#SVGID_1_)}.st2{fill:#f9452d}.st3{fill:#f7772f}</style><g id="Layer_6" class="st0"><radialGradient id="SVGID_1_" cx="749.6" cy="-1176.873" r="1000.5" gradientTransform="matrix(1 0 0 1 0 1930)" gradientUnits="userSpaceOnUse"><stop offset="0" style="stop-color:#f9452d;stop-opacity:.4"/><stop offset=".279" style="stop-color:#f9492d;stop-opacity:.2886"/><stop offset=".567" style="stop-color:#f8562e;stop-opacity:.1732"/><stop offset=".859" style="stop-color:#f86a2e;stop-opacity:5.637774e-02"/><stop offset="1" style="stop-color:#f7772f;stop-opacity:0"/></radialGradient><path d="M1750.1,753.1c0,552.5-447.9,1000.5-1000.5,1000.5S-250.9,1305.7-250.9,753.1 c0-552.5,448-1000.5,1000.5-1000.5S1750.1,200.6,1750.1,753.1z" class="st1"/></g><g id="Layer_5"><path d="M1343.3,1208.1c-111.2-114.1-217.9-221.7-321.4-332.2c-12.8-13.7-15.2-44.2-11.6-65 c21-119.6-22.3-212.2-117.7-280.4c-80.8-57.7-208.8-56.4-289,2.2C508.9,602.1,465.4,694.3,490.5,814c3.9,18.4,1.7,46.3-9.8,58.5 c-105.2,112.3-213.1,222.1-320.4,332.8C-69.8,963-47.2,495.6,196.1,240.5c283.6-297.4,742-322.2,1046.8-56.6 C1538,441,1589.6,899.7,1343.3,1208.1z" class="st2"/></g><g id="Layer_4"><path d="M1144.9,1158.5c42.7,43.3,83.1,84.2,123.2,124.8C1062,1544.1,532.8,1610.4,239.2,1299 c40.9-42.6,81.8-85.3,123.6-128.9C642.9,1371.8,889.5,1371.7,1144.9,1158.5z" class="st3"/></g><g id="Layer_3"><path d="M569.1,956.3c147,82.4,213.3,82.5,360.5-1c39.4,43.4,79.5,87.5,119.7,131.9c-156.7,163-424,165.2-612.2-9.3 C481.2,1037.3,525.1,996.9,569.1,956.3z" class="st3"/></g><g id="Layer_2"><path d="M597.7,757.6c-1.7-89.1,67.2-160.8,153.7-160.2c82.7,0.6,149,69.8,149.4,155.7 c0.3,85.7-65.1,153.8-149.5,155.6C668,910.6,599.3,842.9,597.7,757.6z" class="st3"/></g></svg>